<?xml version="1.0" standalone="no"?>
<!DOCTYPE svg PUBLIC "-//W3C//DTD SVG 20010904//EN"
 "http://www.w3.org/TR/2001/REC-SVG-20010904/DTD/svg10.dtd">
<svg version="1.0" xmlns="http://www.w3.org/2000/svg"
 width="1020.000000pt" height="1020.000000pt" viewBox="0 0 1020.000000 1020.000000"
 preserveAspectRatio="xMidYMid meet">
<metadata>
Created by potrace 1.14, written by Peter Selinger 2001-2017
</metadata>
<g transform="translate(0.000000,1020.000000) scale(0.100000,-0.100000)"
fill="#000000" stroke="none">
<path d="M7063 6228 c-28 -4 -67 -17 -87 -29 l-36 -21 -62 23 c-46 16 -91 23
-168 25 -123 4 -174 -5 -276 -46 -114 -45 -208 -112 -319 -224 -108 -109 -182
-211 -220 -303 -13 -32 -27 -58 -32 -58 -4 0 -30 12 -58 26 -91 47 -153 63
-250 63 -290 -2 -613 -213 -755 -494 -79 -157 -109 -356 -76 -509 48 -226 218
-406 441 -466 80 -22 260 -27 356 -9 343 62 620 254 795 551 49 83 131 261
170 367 20 55 52 144 112 311 120 336 253 618 321 679 20 18 21 18 56 -9 74
-56 130 -155 141 -247 13 -115 -38 -297 -115 -405 -92 -131 -241 -189 -376
-149 -11 4 -4 -1 15 -10 47 -22 184 -15 262 13 229 83 359 337 292 571 -27 95
-108 208 -186 259 -21 14 -35 29 -32 34 12 21 88 50 129 51 25 0 45 2 45 3 0
8 -42 10 -87 3z m-229 -57 c27 -7 53 -14 58 -17 5 -3 -31 -47 -81 -97 -49 -51
-110 -117 -136 -147 -122 -144 -249 -377 -425 -780 -114 -259 -273 -525 -390
-653 -145 -157 -339 -251 -515 -249 -263 2 -437 109 -513 314 -29 78 -34 108
-33 208 1 112 7 158 32 233 81 239 255 480 417 577 204 121 404 132 563 32
l46 -30 -3 -123 c-3 -100 0 -134 15 -177 10 -29 24 -59 31 -65 10 -10 11 -8 5
8 -33 86 -37 107 -37 188 2 135 8 142 48 60 43 -90 56 -148 56 -258 -1 -190
-104 -433 -249 -581 -71 -74 -108 -101 -198 -145 -79 -39 -66 -52 16 -16 111
50 231 147 322 262 55 70 127 219 142 294 2 11 6 25 9 29 8 14 20 126 19 181
-3 108 -45 225 -112 309 l-33 40 23 53 c85 203 340 447 544 520 129 47 261 57
379 30z"/>
<path d="M951 6188 c-85 -13 -258 -75 -346 -123 -355 -194 -581 -505 -601
-830 -16 -240 66 -373 271 -442 84 -29 209 -32 300 -8 246 65 490 279 615 540
67 140 86 215 95 370 6 93 -6 101 -20 15 -14 -85 -74 -255 -127 -360 -61 -120
-139 -229 -225 -311 -247 -240 -597 -307 -776 -149 -62 54 -89 132 -88 245 2
136 28 239 97 378 60 123 122 206 233 317 233 232 501 351 756 338 170 -9 278
-90 311 -233 13 -55 12 -222 -2 -301 -19 -109 -75 -301 -113 -389 -5 -11 -19
-45 -31 -75 -72 -181 -263 -493 -410 -670 -39 -47 -130 -145 -202 -217 -72
-73 -129 -133 -126 -133 22 0 179 60 251 96 329 164 566 414 992 1045 317 469
500 680 702 807 112 72 220 87 284 42 37 -27 49 -50 49 -94 0 -39 -20 -65 -69
-91 -37 -19 -40 -42 -6 -51 65 -16 130 89 103 169 -25 76 -90 117 -181 113
-182 -7 -450 -235 -713 -606 -33 -47 -127 -183 -208 -304 -257 -381 -395 -557
-552 -704 -53 -51 -99 -90 -102 -88 -2 3 29 42 70 88 173 196 283 366 361 563
97 244 121 476 67 650 -55 179 -187 331 -325 375 -22 7 -52 17 -68 23 -36 13
-197 16 -266 5z m149 -1712 c0 -2 -8 -10 -17 -17 -16 -13 -17 -12 -4 4 13 16
21 21 21 13z"/>
<path d="M7537 5336 c-221 -437 -393 -759 -454 -853 -34 -52 -107 -108 -160
-122 -32 -9 -73 6 -73 25 0 12 322 588 356 639 8 11 14 22 14 25 0 3 -38 6
-85 6 l-85 2 -21 -35 -22 -35 -29 31 c-68 72 -201 65 -345 -20 -48 -28 -202
-170 -238 -220 -74 -99 -125 -225 -125 -307 0 -64 32 -126 76 -147 45 -21 144
-18 202 7 44 18 119 66 146 93 9 9 17 11 21 5 3 -5 3 -10 0 -10 -15 0 40 -78
65 -93 61 -36 179 -8 260 61 l44 39 18 -38 c21 -48 63 -75 123 -78 60 -3 116
24 185 90 l55 52 6 -30 c17 -83 94 -130 196 -120 73 7 124 28 190 78 l53 39
14 -35 c49 -115 221 -96 359 41 50 51 57 55 57 34 0 -13 9 -43 21 -67 44 -90
172 -124 283 -74 57 25 166 100 166 114 0 22 13 -5 17 -33 4 -45 29 -76 72
-94 73 -29 153 3 243 96 32 33 58 58 59 56 0 -1 2 -14 5 -27 12 -67 72 -139
117 -142 78 -5 139 15 207 68 49 39 117 109 157 161 18 22 40 36 70 43 47 12
146 72 177 107 29 33 2 26 -56 -14 -53 -38 -107 -64 -132 -64 -10 0 -7 13 14
53 63 122 92 276 62 337 -31 64 -124 74 -227 24 -132 -65 -337 -308 -385 -457
-15 -49 -125 -166 -184 -197 -37 -20 -47 -22 -60 -11 -22 18 -20 33 8 83 13
24 65 122 116 218 51 96 105 198 120 225 38 69 80 154 80 160 0 3 -35 7 -79 9
l-78 2 -25 -45 c-14 -25 -52 -93 -85 -151 -63 -109 -119 -211 -162 -294 -54
-104 -203 -209 -298 -210 -38 -1 -49 3 -65 25 -52 69 -6 220 130 424 74 112
129 174 189 214 51 34 84 39 103 16 10 -12 10 -15 0 -15 -43 0 -120 -102 -127
-170 -10 -100 95 -53 153 69 21 44 13 109 -16 133 -48 39 -175 11 -277 -59
-57 -39 -169 -151 -200 -200 -10 -16 -20 -30 -24 -33 -11 -9 -67 -123 -88
-180 -36 -97 -198 -232 -254 -211 -36 13 -32 49 13 121 12 19 285 511 303 547
l15 28 -84 0 -85 0 -21 -34 -22 -34 -20 25 c-37 44 -72 60 -130 59 -112 -1
-234 -63 -356 -181 -120 -116 -181 -207 -213 -320 -18 -62 -71 -126 -147 -176
-65 -44 -75 -46 -100 -20 l-21 24 132 258 c72 143 178 349 234 459 180 350
225 438 225 442 0 2 -10 1 -22 -3 -34 -10 -100 -13 -123 -4 -19 7 -31 -12
-128 -204z m-610 -314 c27 -17 31 -56 11 -125 -54 -198 -239 -452 -377 -520
-128 -63 -178 -10 -124 133 68 184 258 441 368 498 40 21 100 28 122 14z
m1213 -12 c11 -11 20 -26 20 -33 0 -17 -37 -131 -57 -177 -120 -271 -238 -414
-379 -459 -56 -18 -76 -12 -98 30 -19 35 -19 37 -2 90 54 166 222 417 341 509
79 61 140 75 175 40z m1636 -18 c30 -20 43 -92 28 -150 -5 -18 -9 -20 -21 -10
-22 18 -74 10 -102 -15 -29 -27 -58 -88 -66 -144 -7 -47 14 -109 39 -119 14
-5 13 -9 -3 -33 -50 -69 -191 -189 -226 -192 -5 -1 -18 -5 -28 -10 -13 -7 -23
-4 -41 14 -22 22 -24 29 -15 68 45 210 270 556 382 588 42 12 40 12 53 3z"/>
<path d="M1998 5233 c-43 -27 -63 -94 -36 -121 7 -7 29 -12 51 -12 44 0 91 39
103 84 14 56 -58 86 -118 49z"/>
<path d="M3224 5231 c-20 -12 -37 -34 -44 -56 -10 -32 -10 -39 6 -57 15 -16
27 -19 63 -15 49 5 77 28 90 74 19 66 -46 96 -115 54z"/>
<path d="M9270 5233 c-50 -18 -86 -96 -60 -128 30 -37 129 -6 151 47 26 62
-23 106 -91 81z"/>
<path d="M4312 5099 c-182 -46 -339 -180 -534 -454 -128 -180 -150 -203 -251
-255 -90 -46 -149 -53 -188 -21 -21 17 -24 28 -24 83 0 54 6 75 43 150 52 103
62 114 93 98 57 -31 183 18 277 109 122 117 141 246 43 287 -44 18 -79 18
-138 -2 -181 -61 -403 -321 -442 -514 -21 -106 5 -183 78 -235 39 -27 50 -30
119 -29 56 0 90 6 124 21 60 27 143 89 190 141 36 40 51 51 46 35 -7 -22 28
-105 55 -133 50 -51 98 -70 177 -71 38 -1 73 1 77 4 5 3 29 8 53 12 148 20
258 109 359 289 24 43 18 64 -8 28 -124 -172 -205 -248 -286 -266 l-30 -6 26
23 c41 37 84 144 104 257 2 14 13 81 25 150 25 151 42 209 75 266 14 23 22 45
18 47 -5 3 -41 -3 -81 -14z m14 -46 c-44 -46 -84 -141 -116 -273 -33 -134 -88
-260 -140 -323 -70 -84 -177 -101 -228 -38 -45 57 -58 121 -35 169 l15 31 27
-20 c53 -39 133 6 144 83 4 25 -11 78 -22 78 -4 0 -15 6 -25 13 -16 12 -15 16
22 63 107 131 192 194 322 235 30 9 57 15 59 14 1 -2 -9 -16 -23 -32z m-538
-18 c9 -93 -246 -328 -324 -298 -20 7 -18 16 18 69 72 108 249 269 287 262 10
-2 17 -15 19 -33z"/>
<path d="M2505 5065 c-74 -20 -100 -31 -160 -70 -151 -96 -251 -217 -349 -417
-81 -168 -207 -267 -273 -215 -25 19 -13 71 43 176 83 155 133 250 164 306 15
28 48 88 73 135 l46 85 -81 -2 c-77 -1 -82 -2 -98 -30 -9 -15 -56 -98 -105
-183 -147 -261 -243 -393 -331 -457 -43 -31 -45 -35 -20 -29 37 9 77 37 125
89 l38 40 0 -47 c0 -59 16 -88 63 -115 80 -45 168 -19 275 80 l62 59 7 -38
c21 -123 203 -164 343 -76 15 10 46 33 68 51 l41 32 2 -26 c3 -42 27 -70 76
-88 42 -16 48 -16 103 1 57 17 136 63 161 93 39 49 -47 -113 -108 -204 -61
-91 -138 -167 -196 -195 -82 -40 -194 -13 -239 58 -23 37 -36 41 -27 10 3 -12
25 -41 49 -64 100 -98 282 -82 432 37 76 61 143 151 227 310 71 135 115 217
186 349 94 173 115 211 149 273 l39 69 -58 -5 c-31 -2 -69 0 -84 4 -26 7 -29
3 -87 -99 -32 -59 -91 -167 -130 -240 -81 -152 -126 -224 -176 -276 -59 -63
-167 -98 -182 -60 -9 23 64 166 217 429 71 121 132 227 135 236 5 14 1 16 -32
10 -21 -4 -55 -4 -77 0 -37 6 -39 5 -66 -38 l-28 -43 -21 35 c-31 54 -108 73
-196 50z m159 -50 c23 -23 11 -96 -31 -194 -39 -90 -118 -237 -140 -259 -7 -7
-13 -17 -13 -22 0 -4 -31 -39 -68 -77 -156 -156 -301 -161 -278 -10 10 68 107
253 184 353 80 103 168 189 214 209 44 19 113 19 132 0z"/>
</g>
</svg>
